<svg xmlns="http://www.w3.org/2000/svg" viewBox="0 0 947.18 922.54"><defs><style>.a{fill:#9edae4;}.b{fill:#ffc754;}.c{fill:#ffe5cb;}.d{fill:#010101;}</style></defs><title>BeerClubLogo_MonoSciLifeLab</title><path d="M779,260.57l1.58-49.74-2.91-.24a112.76,112.76,0,0,1-5,18.2,50,50,0,0,1-7,12.37A37.35,37.35,0,0,1,749.41,253q-9.9,3.81-24.32,3.82-13.83,0-22.2-4.07a26.69,26.69,0,0,1-12.62-12.8A38.88,38.88,0,0,1,687,227.09q-.86-7.89-.85-24v-70q0-12.73,1.45-18.8a20.3,20.3,0,0,1,5.58-10.07,20.1,20.1,0,0,1,7.52-4.61,41.26,41.26,0,0,1,10.92-1.82V95H634.11v2.79a37.46,37.46,0,0,1,10.73,1.7,21.37,21.37,0,0,1,7.58,4.61,20,20,0,0,1,5.65,10q1.5,6.12,1.51,19v89.41q0,12.38-1.4,18.37a20.42,20.42,0,0,1-5.15,9.89q-6.67,6.91-18.92,6.92v2.91Z" transform="translate(-38.41 -65.41)"/><path d="M842.49,221.26q0,15.41-3.75,23.54a22.75,22.75,0,0,1-7.92,9.88,19.08,19.08,0,0,1-11.19,3.7,14,14,0,0,1-11.18-5.21c-3-3.48-4.41-7.89-4.41-13.23a25.28,25.28,0,0,1,5.68-16.37,32.17,32.17,0,0,1,6.16-5.82,125.64,125.64,0,0,1,12.22-7.16A81,81,0,0,0,842.49,201Zm35.12,32.88a11,11,0,0,1-5.88,1.33q-7.89,0-10-8.61-1-4.12-1-15.53V186.45q0-8.61-1-12.26-2-7.14-9.84-11.64a54.08,54.08,0,0,0-13.61-5,67.33,67.33,0,0,0-15.68-2A69.8,69.8,0,0,0,807,157a52.82,52.82,0,0,0-11.72,3.58q-8.76,4.24-8.75,10.43a9.18,9.18,0,0,0,2.79,6.85,9.49,9.49,0,0,0,6.91,2.73,8.76,8.76,0,0,0,8.74-5.7l3-7a15.53,15.53,0,0,1,14.68-9.59,18.3,18.3,0,0,1,7.94,1.82,17.59,17.59,0,0,1,6.25,4.86q5.34,6.54,5.34,20.74a29.55,29.55,0,0,1-1.46,10.43,14.61,14.61,0,0,1-5.33,6.55,32.22,32.22,0,0,1-8.44,4.37q-5,1.81-15.58,4.49a79.76,79.76,0,0,0-13.71,4.55,28.65,28.65,0,0,0-8.37,6A23.57,23.57,0,0,0,782.93,239q0,10.92,7.84,17.35T812,262.75a37.22,37.22,0,0,0,18.35-4.37q4.13-2.29,12.27-9.58,4,6.91,7.77,9.71,5.71,4.23,14.34,4.24,15.64,0,20-12.74l-2.06-1.21a21.22,21.22,0,0,1-5,5.34" transform="translate(-38.41 -65.41)"/><path d="M908.91,174.66a25.69,25.69,0,0,1,8.94-11.2,22,22,0,0,1,13-4.31,23.09,23.09,0,0,1,11.35,3.09,33.51,33.51,0,0,1,10.15,9,51,51,0,0,1,9,17.39,73.42,73.42,0,0,1,3.13,21.63q0,21.68-9.6,35.74t-24.34,14A23.37,23.37,0,0,1,918,256.69a21.22,21.22,0,0,1-8.27-9.33c-1.54-3.31-2.78-8.6-3.76-15.87a183,183,0,0,1-1.44-23.87q0-22.78,4.35-33m-4.35-84.53-37.12,5.09v2.91q10.18,0,14.49,5.89t4.31,19.47V265.78h4.86q4.73-10.06,10.91-10.06a13.92,13.92,0,0,1,5,1.09l6.79,2.79q8,3.15,19.53,3.15,22,0,36-13.21,16.26-15.14,16.25-41.44t-17-40.71a47.72,47.72,0,0,0-32.1-11.75q-13,0-22.29,5.93a44.88,44.88,0,0,0-9.69,9.34Z" transform="translate(-38.41 -65.41)"/><path d="M41.2,260.08q2.19-5.82,8-5.82a10.14,10.14,0,0,1,3.28.49q1.46.48,9,3.76a75.65,75.65,0,0,0,30.08,6.18q17.11,0,29.72-7.68a47.57,47.57,0,0,0,18.93-21.85,52.2,52.2,0,0,0,4.49-21.3,46.17,46.17,0,0,0-9.94-29.38q-8.72-11.29-28.46-20.65L89.2,155.58q-26-12.39-26-32.67A29.38,29.38,0,0,1,65,112.71a28.36,28.36,0,0,1,5.15-8.87q7.88-9.23,21.44-9.22a29.92,29.92,0,0,1,16.46,4.55q7.15,4.55,13.08,14a65.48,65.48,0,0,1,5.63,11.34q2.37,6.12,5.64,17.65h2.78L134.36,94h-2.78q-1.47,6.19-5.7,6.19a13.69,13.69,0,0,1-3.89-.67c-1.45-.44-4.2-1.48-8.25-3.09a89.19,89.19,0,0,0-13-4.55,45.55,45.55,0,0,0-10.55-1.15,43.36,43.36,0,0,0-30.45,11.88,46.85,46.85,0,0,0-11.34,16A48.21,48.21,0,0,0,44.35,138q0,16.38,10.44,27.78A50.8,50.8,0,0,0,64.67,174a193.63,193.63,0,0,0,17.65,9.83,185.28,185.28,0,0,1,19.47,11,41.21,41.21,0,0,1,9.89,9.09,37.32,37.32,0,0,1,5.4,11.05,42.39,42.39,0,0,1,2,12.61q0,14.31-9.1,23.66t-23,9.34q-20,0-33.24-20.34-7-11-12.13-30.13L38.77,210l-.36,50.1Z" transform="translate(-38.41 -65.41)"/><path d="M228.12,250.26q-7.63,7.39-19.26,7.4-14,0-24.45-10.92a49.38,49.38,0,0,1-10.54-17.23,59.59,59.59,0,0,1-3.87-21.1,73.27,73.27,0,0,1,4.23-24,54.14,54.14,0,0,1,6.48-13.29,33,33,0,0,1,9-8.79,23.4,23.4,0,0,1,13.19-4,14.94,14.94,0,0,1,9.2,2.79,10.43,10.43,0,0,1,3,3.39,51.94,51.94,0,0,1,2.72,7.28q3.77,11.53,11.65,11.52a8.28,8.28,0,0,0,6.18-2.61,8.88,8.88,0,0,0,2.55-6.49q0-5.82-6.06-10.67-10-7.89-27.54-7.88a60.11,60.11,0,0,0-23.47,4.49,48.43,48.43,0,0,0-18.14,13,54.61,54.61,0,0,0-10.31,17.84,61.73,61.73,0,0,0-3.76,21.1q0,21.84,13.59,36.15,13.94,14.56,38.45,14.56,15.28,0,24-5.7t13-18.56l-2.43-.85q-3.51,8.73-7.38,12.62" transform="translate(-38.41 -65.41)"/><path d="M238.55,162.55a21.7,21.7,0,0,1,8.37,1.87,12.83,12.83,0,0,1,5,4.89,18.84,18.84,0,0,1,2.67,8.15,166.38,166.38,0,0,1,.61,17.43v29.82q0,10.62-.55,16.23a26.07,26.07,0,0,1-1.88,8.39,12.45,12.45,0,0,1-5.09,6q-3.17,1.74-10.43,2.71v2.55h53.61V258q-9.09-1.69-12.49-5a12.49,12.49,0,0,1-3.76-6.34q-1-3.81-1-12l-.12-9.19V155.64L238.55,160Z" transform="translate(-38.41 -65.41)"/><path d="M263.74,136a11.39,11.39,0,1,0-11.39-11.39A11.39,11.39,0,0,0,263.74,136" transform="translate(-38.41 -65.41)"/><path d="M587,83c.17.06,16-16.12,15.93-16.14a70.2,70.2,0,0,0-69.46,25.67c-20.31,26.21-22.65,62.94-23.2,71.58,0,.15-9.84,0-9.84,0l-13.25,14h21.38s-11.88,122.44-12.83,129.09c-.92,6.47-6.12,65.48-57.93,47.77-.06,0-15.67,14.16-15.52,14.21,24.81,8.85,85.7-2.95,92.8-91.6,5.18-64.63,10.15-99.58,10.15-99.58s32.34-.09,32.26,0c-1.8,3.12-9,13.44-8.85,32.63.16,32.3,23.92,52.34,53.89,52.47,36,.17,41.14-24.81,42.11-29a23.89,23.89,0,0,0-2.25-.89c-2.79,7.26-8.17,21.3-31.55,21.62-29.08.39-45-33.28-40.12-60.6,0-.22,71.38.17,71.37,0-.76-41.54-41-39.9-47.87-38.7a11.42,11.42,0,0,0,0,2.74c26.78-3.83,29.51,25.24,29.51,30.93,0,.18-52.39.55-52.36.3.83-6.16,4.16-18.56,10.6-24.35,1.54-1.38-55.3-.76-55.3-.76s2.11-22.63,2.84-27.77c2.4-16.9,4.15-72.38,57.49-53.67" transform="translate(-38.41 -65.41)"/><path d="M439.22,260.57l1.58-49.74-2.91-.24a112.76,112.76,0,0,1-5,18.2,50.29,50.29,0,0,1-7,12.37A37.44,37.44,0,0,1,409.68,253q-9.89,3.81-24.32,3.82-13.83,0-22.2-4.07a26.73,26.73,0,0,1-12.62-12.8,39.13,39.13,0,0,1-3.27-12.85q-.86-7.89-.85-24v-70q0-12.73,1.45-18.8a20.3,20.3,0,0,1,5.58-10.07A20.1,20.1,0,0,1,361,99.59a41.26,41.26,0,0,1,10.92-1.82V95H294.38v2.79a37.46,37.46,0,0,1,10.73,1.7,21.41,21.41,0,0,1,7.59,4.61,20.09,20.09,0,0,1,5.64,10q1.5,6.12,1.51,19v89.41q0,12.38-1.39,18.37a20.52,20.52,0,0,1-5.16,9.89q-6.68,6.91-18.92,6.92v2.91Z" transform="translate(-38.41 -65.41)"/><path d="M445,162.55a21.7,21.7,0,0,1,8.37,1.87,12.92,12.92,0,0,1,5,4.89,19,19,0,0,1,2.67,8.15,170.1,170.1,0,0,1,.6,17.43v29.82q0,10.62-.54,16.23a26.61,26.61,0,0,1-1.88,8.39,12.52,12.52,0,0,1-5.1,6q-3.17,1.74-10.43,2.71v2.55h53.62V258q-9.1-1.69-12.5-5a12.56,12.56,0,0,1-3.76-6.34q-1-3.81-1-12l-.12-9.19V155.64L445,160Z" transform="translate(-38.41 -65.41)"/><path d="M470.71,136a11.39,11.39,0,1,0-11.38-11.39A11.39,11.39,0,0,0,470.71,136" transform="translate(-38.41 -65.41)"/><path class="a" d="M662.78,460l-382.3.75v459a54.63,54.63,0,0,0,54.63,54.63H608.3a54.63,54.63,0,0,0,54.63-54.63V460.23Z" transform="translate(-38.41 -65.41)"/><polygon class="b" points="624.52 854.24 624.52 394.82 624.37 394.54 242.07 395.3 242.07 854.24 624.52 854.24"/><path class="a" d="M799.53,576.81V810.38A54.64,54.64,0,0,1,744.89,865h-82V810.38h82V576.81h-82V522.17h82A54.65,54.65,0,0,1,799.53,576.81Z" transform="translate(-38.41 -65.41)"/><path class="c" d="M688.82,400.21c10.39,46.13-37.19,83-81.89,60.31V575.84a27.32,27.32,0,1,1-54.64,0V521.2c0-18.86.69-53.66-60.1-53.66a18.1,18.1,0,0,0-13.05,5.53,68.28,68.28,0,0,1-97,1.23,23.78,23.78,0,0,0-16.82-6.76,13.61,13.61,0,0,0-12.24,7.63,81.56,81.56,0,0,1-72.64,46v109c-.69,15.38-12.91,27.62-28,27.62s-28-12.24-28-27.32V466.57c0-65,57.39-116.71,124-108.17,18.65-33.23,54.33-56.14,95.26-56.14a109.34,109.34,0,0,1,81.47,36.84A53.06,53.06,0,0,1,553.66,331a54.62,54.62,0,0,1,51.56,36.53,54.65,54.65,0,0,1,83.6,32.73Z" transform="translate(-38.41 -65.41)"/><path class="d" d="M553,905a13.66,13.66,0,1,0,13.66,13.66A13.67,13.67,0,0,0,553,905Z" transform="translate(-38.41 -65.41)"/><path class="d" d="M361.07,562.18a13.66,13.66,0,0,0-13.66,13.66V836.73a13.66,13.66,0,0,0,27.32,0V575.84A13.67,13.67,0,0,0,361.07,562.18Z" transform="translate(-38.41 -65.41)"/><path class="d" d="M470.34,562.18a13.67,13.67,0,0,0-13.66,13.66V836.73a13.66,13.66,0,0,0,27.32,0V575.84A13.67,13.67,0,0,0,470.34,562.18Z" transform="translate(-38.41 -65.41)"/><path class="d" d="M335.11,988H608.3a68.37,68.37,0,0,0,68.29-68.29v-41h68.3a68.37,68.37,0,0,0,68.29-68.3V576.81a68.37,68.37,0,0,0-68.29-68.3h-68.3V467.18a68.3,68.3,0,0,0,25.56-70c-5.65-25.12-26.38-45.62-51.59-51a69.08,69.08,0,0,0-39.2,2.81,68.39,68.39,0,0,0-57.7-31.73,67.5,67.5,0,0,0-25.75,5.06A122.23,122.23,0,0,0,341.22,344c-71.4-3.95-130.4,52.69-130.4,122.54V630.48c0,22.59,18.68,41,41.66,41a41,41,0,0,0,14.34-2.58V919.66A68.37,68.37,0,0,0,335.11,988ZM608.3,960.63H335.11a41,41,0,0,1-38.62-27.32H498.35a13.66,13.66,0,1,0,0-27.31H294.14V533.79a94.83,94.83,0,0,0,71.22-52.59,10.13,10.13,0,0,1,7.25,2.84A81.93,81.93,0,0,0,489,482.56a4.51,4.51,0,0,1,3.23-1.36c21.27,0,35.18,4.54,41.36,13.49,5.09,7.39,5.09,17.64,5.09,25.89v55.26A41,41,0,0,0,566,614.47V836.73a13.66,13.66,0,0,0,27.32,0V614.47a41,41,0,0,0,27.32-38.63V479.59a72.49,72.49,0,0,0,28.68,0V906H607.6a13.59,13.59,0,1,0,0,27.18h39.33A41.17,41.17,0,0,1,608.3,960.63Zm68.29-370.16h54.64V796.72H676.59Zm68.3-54.64a41,41,0,0,1,41,41V810.38a41,41,0,0,1-41,41h-68.3V824h68.3a13.66,13.66,0,0,0,13.66-13.66V576.81a13.67,13.67,0,0,0-13.66-13.66h-68.3V535.83ZM252.48,644.14c-7.78,0-14.35-6.26-14.35-13.66V466.57c0-52.72,43.14-95.42,96.17-95.42a97.8,97.8,0,0,1,12.41.8,13.66,13.66,0,0,0,13.65-6.87A95.06,95.06,0,0,1,515,348.21a13.66,13.66,0,0,0,17.48,2.43,39.55,39.55,0,0,1,21.19-6A41,41,0,0,1,592.33,372a13.67,13.67,0,0,0,20.5,6.83,41.36,41.36,0,0,1,32-5.91c14.75,3.15,27.36,15.61,30.66,30.29,7.78,34.51-27.6,62.82-62.37,45.13a13.66,13.66,0,0,0-19.85,12.18V575.84a13.66,13.66,0,0,1-27.32,0V520.59c0-10.76,0-27-9.92-41.41-11.58-16.79-33.06-25.3-63.84-25.3a31.92,31.92,0,0,0-22.87,9.69,54.61,54.61,0,0,1-77.57,1,37.4,37.4,0,0,0-26.39-10.67,27.44,27.44,0,0,0-24.52,15.3,67.72,67.72,0,0,1-60.48,38.37,13.65,13.65,0,0,0-13.54,13.66V629.83C266.34,637.87,260.08,644.14,252.48,644.14Z" transform="translate(-38.41 -65.41)"/></svg>